<?xml version="1.0" standalone="no"?>
<!DOCTYPE svg PUBLIC "-//W3C//DTD SVG 20010904//EN"
 "http://www.w3.org/TR/2001/REC-SVG-20010904/DTD/svg10.dtd">
<svg version="1.0" xmlns="http://www.w3.org/2000/svg"
 width="1920.000000pt" height="1920.000000pt" viewBox="0 0 1920.000000 1920.000000"
 preserveAspectRatio="xMidYMid meet">
<metadata>
Created by potrace 1.14, written by Peter Selinger 2001-2017
</metadata>
<g transform="translate(0.000000,1920.000000) scale(0.100000,-0.100000)"
fill="#000000" stroke="none">
<path d="M10375 17510 c-139 -20 -144 -21 -268 -54 -248 -66 -566 -226 -807
-405 -41 -31 -82 -63 -91 -71 -9 -8 -42 -37 -75 -65 -32 -27 -95 -88 -139
-135 -44 -46 -206 -209 -360 -362 -217 -216 -284 -277 -300 -274 -58 14 -130
20 -220 20 -226 -1 -377 -92 -511 -307 -133 -214 -235 -475 -263 -672 -10 -73
-8 -321 3 -365 3 -14 8 -39 11 -56 31 -232 233 -635 469 -934 152 -194 312
-336 431 -386 144 -59 157 -71 191 -181 l12 -41 -109 -56 c-156 -80 -383 -220
-499 -308 -369 -279 -588 -485 -890 -838 -12 -14 -34 -40 -48 -59 -15 -19 -32
-39 -38 -45 -19 -20 -237 -317 -279 -381 -22 -33 -42 -62 -45 -65 -3 -3 -10
-14 -17 -25 -6 -11 -40 -65 -75 -120 -35 -55 -68 -109 -74 -120 -6 -11 -29
-52 -51 -90 -119 -206 -244 -458 -341 -685 -40 -94 -142 -356 -147 -375 -1 -5
-5 -17 -8 -25 -38 -89 -169 -542 -161 -555 2 -3 0 -2 -5 2 -5 5 -12 42 -15 83
-4 41 -8 89 -10 105 -14 119 -17 142 -21 155 -2 8 -6 40 -10 71 -3 31 -8 67
-10 80 -3 13 -7 41 -10 62 -11 82 -69 346 -95 432 -80 258 -175 457 -298 624
-58 79 -90 115 -257 286 -142 144 -173 159 -810 365 -293 94 -497 212 -935
538 -74 56 -207 155 -295 220 -280 209 -436 309 -619 397 -160 77 -374 151
-486 169 -19 3 -46 8 -60 11 -26 5 -82 14 -135 20 -45 5 -276 6 -305 1 -24 -5
-58 -10 -137 -22 -149 -21 -380 -118 -538 -223 -295 -198 -510 -425 -588 -623
-30 -74 -46 -202 -27 -213 25 -15 132 -5 310 28 220 41 183 37 355 41 136 3
281 -15 340 -43 11 -5 40 -17 65 -26 191 -71 412 -280 563 -532 53 -88 114
-219 201 -434 144 -356 206 -470 330 -605 86 -94 212 -165 335 -190 39 -7 194
-7 231 1 14 3 41 8 60 11 45 8 111 28 235 71 343 118 383 130 445 139 19 3 49
9 65 13 45 12 341 6 410 -8 354 -70 590 -193 800 -414 126 -132 191 -216 272
-352 70 -118 159 -298 204 -415 75 -195 149 -491 174 -696 3 -27 8 -60 10 -74
4 -24 8 -54 20 -165 3 -27 8 -79 10 -115 3 -36 7 -96 10 -135 7 -106 14 -226
20 -365 3 -69 8 -156 10 -195 2 -38 7 -113 10 -165 8 -144 15 -251 20 -295 2
-22 7 -67 10 -100 3 -33 8 -71 9 -85 2 -14 6 -52 10 -85 4 -33 11 -82 16 -110
5 -27 11 -63 14 -80 3 -16 7 -42 10 -57 12 -58 16 -79 21 -105 3 -16 17 -75
31 -133 14 -58 27 -112 29 -120 2 -8 11 -42 20 -75 10 -33 21 -73 25 -90 41
-159 184 -550 271 -743 16 -35 29 -65 29 -68 0 -12 174 -351 235 -460 232
-409 540 -832 931 -1279 429 -491 848 -834 1109 -908 28 -8 79 -13 114 -12 63
2 66 1 200 -78 75 -44 221 -123 325 -175 150 -76 185 -97 171 -104 -14 -8 -8
-16 41 -45 206 -124 554 -248 894 -319 36 -7 76 -16 90 -19 14 -2 41 -8 60
-12 19 -4 37 -8 40 -8 3 -1 25 -5 50 -9 25 -5 54 -10 65 -12 11 -3 35 -7 54
-10 18 -3 42 -7 51 -9 10 -2 40 -7 67 -11 26 -3 57 -8 67 -10 11 -2 56 -8 100
-14 45 -6 92 -13 106 -15 14 -2 52 -7 85 -10 33 -3 71 -8 85 -10 14 -2 57 -7
95 -10 39 -3 88 -8 110 -10 244 -27 916 -27 1175 0 19 2 71 6 115 10 44 3 87
8 95 10 8 2 47 6 85 10 39 3 111 12 160 20 50 8 108 16 130 20 22 3 76 12 120
21 44 8 91 17 105 20 14 2 45 9 70 14 25 5 56 12 70 14 36 6 261 64 357 91
541 157 1159 455 1678 810 126 87 311 222 350 256 17 15 84 73 150 129 66 56
147 125 180 153 70 60 198 188 270 271 28 32 59 67 70 80 11 12 34 39 50 61
17 21 42 52 56 69 158 190 477 662 618 916 53 95 192 372 213 425 9 22 24 58
34 80 10 22 18 42 19 45 3 11 17 46 26 65 34 77 153 412 212 600 27 84 122
433 131 482 3 15 15 71 26 123 11 52 23 106 25 120 3 14 7 36 10 50 12 58 33
186 49 300 17 116 25 180 32 255 2 28 6 70 9 95 27 267 26 838 -1 1115 -2 22
-6 65 -9 95 -3 30 -7 71 -10 90 -2 19 -7 58 -10 85 -3 28 -8 64 -11 80 -2 17
-6 44 -8 60 -4 26 -19 121 -32 195 -7 37 -60 294 -78 375 -86 382 -260 895
-429 1263 -91 197 -248 492 -327 617 -8 13 -28 45 -44 72 -141 232 -362 524
-556 733 -48 52 -105 115 -127 140 -60 70 -323 331 -382 380 -29 25 -59 50
-65 55 -17 16 -184 139 -349 259 -288 208 -464 316 -672 413 -94 43 -99 43
-108 -8 -3 -13 -15 -62 -27 -109 -12 -47 -23 -92 -25 -100 -2 -8 -22 -87 -45
-175 -23 -88 -43 -168 -45 -178 -8 -35 -17 -34 -98 10 -297 165 -711 337
-1092 453 -38 11 -76 23 -82 25 -8 3 4 32 35 87 154 266 312 687 357 948 10
56 33 233 33 255 3 93 1 196 -3 225 -2 19 -6 55 -9 80 -19 162 -87 316 -215
489 -108 146 -127 184 -136 271 -3 36 -13 90 -22 120 -8 30 -16 60 -17 65 -1
6 -17 48 -36 95 -167 414 -431 741 -785 972 -274 179 -665 321 -942 342 -17 2
-48 -3 -68 -10 -36 -12 -37 -11 -98 40 -171 143 -323 219 -523 261 -84 18
-323 27 -409 15z m255 -75 c191 -15 366 -74 505 -168 17 -11 69 -52 117 -91
121 -96 265 -290 365 -492 39 -78 104 -255 117 -319 4 -16 9 -41 12 -55 33
-161 45 -277 45 -467 0 -73 2 -133 5 -133 2 0 37 24 77 54 85 63 120 82 166
89 29 5 39 1 64 -26 48 -51 128 -180 209 -337 93 -180 109 -207 176 -300 139
-192 293 -281 416 -240 74 24 151 130 172 236 10 50 11 258 1 304 -35 169 -64
255 -128 383 -42 86 -150 262 -168 277 -3 3 -24 28 -46 55 -63 80 -223 237
-315 310 -186 147 -331 232 -720 418 -117 56 -169 87 -212 127 -32 29 -58 56
-58 60 0 25 251 -22 425 -79 502 -163 890 -472 1138 -903 111 -195 190 -396
202 -516 6 -62 11 -92 21 -125 7 -25 102 -174 125 -197 8 -8 35 -44 60 -80
158 -228 198 -520 125 -920 -22 -119 -63 -265 -123 -435 -34 -95 -51 -137
-104 -250 -12 -27 -23 -52 -24 -55 -3 -16 -77 -152 -150 -278 -2 -2 -227 49
-233 53 -1 1 5 22 14 46 23 65 64 200 70 233 3 16 7 32 9 36 3 4 7 22 9 41 3
19 7 43 10 54 8 40 19 171 20 253 3 150 -32 402 -55 402 -6 0 -61 -52 -123
-115 -143 -145 -160 -153 -461 -209 -174 -32 -188 -35 -277 -42 -75 -6 -77 -6
-83 17 -11 46 -12 105 -3 174 5 39 11 88 13 110 6 46 6 146 1 190 -1 17 -4 38
-4 48 -3 24 -44 38 -127 42 -53 2 -78 -1 -105 -15 -43 -22 -48 -28 -86 -100
-15 -30 -60 -109 -98 -175 -129 -223 -138 -240 -161 -280 -26 -48 -80 -140
-123 -213 -18 -29 -32 -55 -32 -57 0 -3 -15 -28 -33 -57 -46 -75 -55 -93 -80
-177 -16 -52 -27 -75 -40 -77 -9 -1 -52 -5 -95 -8 -113 -10 -185 -17 -202 -21
-8 -2 -39 -7 -69 -10 -30 -4 -63 -9 -75 -11 -11 -2 -38 -6 -61 -9 -22 -3 -49
-9 -60 -12 -27 -8 -21 -2 60 53 62 41 271 201 301 229 6 5 31 27 56 47 l45 38
-14 62 c-8 35 -31 96 -51 137 -75 153 -185 274 -432 472 -52 42 -104 85 -115
96 -67 64 -158 108 -275 134 -67 14 -343 20 -425 8 -33 -4 -85 -11 -115 -14
-64 -7 -221 -39 -300 -61 -30 -8 -62 -17 -70 -19 -73 -18 -143 -57 -190 -105
-135 -139 -265 -412 -315 -660 -34 -171 -20 -332 40 -449 80 -159 323 -264
612 -265 35 0 59 -3 55 -7 -4 -4 -48 -23 -99 -44 -97 -38 -119 -40 -293 -20
-19 2 -79 7 -132 10 -83 5 -98 4 -98 -9 0 -8 5 -18 10 -21 6 -3 10 -14 10 -23
0 -9 16 -42 35 -72 19 -30 31 -58 27 -61 -4 -3 -52 -30 -107 -59 -92 -48 -98
-50 -72 -22 l28 30 -61 123 c-34 68 -64 126 -66 128 -2 2 -31 -2 -65 -9 -76
-16 -263 -108 -389 -190 -86 -57 -318 -224 -330 -239 -3 -3 -36 -33 -75 -66
-173 -147 -469 -433 -595 -575 -36 -40 -70 -78 -75 -84 -6 -6 -52 -63 -103
-126 -101 -126 -95 -119 -137 -175 -17 -22 -33 -44 -38 -50 -93 -123 -268
-390 -355 -545 -39 -69 -78 -138 -88 -155 -56 -98 -264 -540 -264 -561 0 -3
-7 -20 -15 -37 -46 -102 -186 -510 -219 -642 -10 -38 -19 -74 -21 -80 -1 -5
-3 -13 -4 -17 -1 -4 -7 -22 -12 -40 -6 -18 -12 -44 -15 -58 -3 -14 -9 -41 -14
-60 -5 -19 -11 -46 -14 -60 -3 -14 -14 -67 -25 -118 -20 -91 -63 -344 -76
-447 -4 -27 -8 -62 -10 -76 -2 -14 -7 -59 -10 -100 -4 -41 -9 -87 -10 -104
-19 -171 -25 -736 -11 -930 3 -49 8 -130 11 -180 6 -117 15 -239 21 -295 19
-182 21 -203 44 -350 16 -107 17 -112 24 -140 3 -14 7 -38 10 -55 2 -16 10
-55 16 -85 7 -30 16 -73 20 -95 32 -156 112 -436 177 -620 19 -55 38 -110 40
-123 3 -12 9 -25 14 -28 5 -3 9 -11 9 -19 0 -24 129 -325 215 -501 120 -246
269 -502 424 -729 59 -86 241 -333 263 -356 7 -8 25 -30 40 -51 15 -20 33 -42
40 -50 7 -7 42 -47 78 -88 167 -193 415 -441 590 -590 41 -35 77 -66 80 -69 3
-4 25 -22 50 -41 25 -19 51 -41 59 -48 7 -7 48 -38 90 -69 42 -31 78 -59 81
-62 6 -7 66 -49 189 -133 89 -61 89 -73 0 -36 -187 77 -457 284 -739 568 -156
157 -395 428 -555 630 -33 41 -64 80 -70 86 -5 7 -19 24 -30 40 -11 15 -25 32
-30 38 -6 6 -22 27 -35 46 -13 19 -28 40 -33 45 -63 79 -296 427 -385 576
-117 195 -275 510 -356 709 -26 63 -52 126 -58 140 -6 14 -12 30 -14 35 -1 6
-14 40 -28 77 -73 190 -204 642 -232 796 -2 12 -6 32 -8 45 -2 12 -13 72 -25
132 -25 136 -41 262 -56 430 -3 39 -8 94 -10 122 -3 29 -7 95 -10 145 -3 51
-8 127 -11 168 -2 41 -6 134 -9 205 -2 72 -7 162 -10 200 -2 39 -7 113 -10
165 -14 217 -13 208 -36 405 -6 50 -12 101 -15 115 -9 52 -26 156 -31 185 -10
67 -63 276 -93 370 -96 298 -275 645 -427 825 -84 99 -272 279 -339 322 -119
79 -349 186 -437 203 -10 2 -27 7 -37 10 -23 7 -57 15 -95 21 -16 3 -36 7 -44
10 -53 18 -326 24 -441 10 -102 -13 -230 -49 -430 -121 -348 -126 -501 -147
-661 -91 -210 73 -341 247 -519 691 -145 361 -199 465 -331 640 -181 241 -394
391 -644 454 -79 20 -132 25 -260 25 -158 0 -208 -6 -470 -60 -10 -2 -37 -6
-60 -9 -22 -3 -47 -8 -57 -11 -27 -8 -30 13 -13 74 26 88 63 153 150 262 63
79 213 214 348 314 179 132 407 234 582 262 22 3 42 7 45 9 3 2 41 6 85 10
319 30 629 -36 970 -205 202 -100 325 -181 700 -461 472 -353 634 -463 845
-567 74 -37 182 -82 240 -101 58 -18 114 -37 125 -41 15 -6 223 -73 295 -95 3
-1 12 -4 20 -8 8 -3 60 -22 114 -42 145 -53 178 -76 317 -220 219 -225 304
-346 402 -575 43 -101 112 -310 123 -378 3 -15 7 -35 10 -44 6 -22 15 -58 19
-83 4 -27 12 -64 19 -95 3 -14 8 -43 11 -64 3 -21 7 -48 10 -60 2 -12 7 -43
10 -71 3 -27 8 -63 10 -80 2 -16 7 -50 10 -75 3 -25 7 -56 9 -70 3 -14 7 -54
11 -90 3 -36 8 -81 10 -100 3 -19 7 -66 10 -105 4 -38 9 -95 13 -124 l7 -55
67 94 66 93 -24 20 c-14 11 -23 22 -20 25 3 2 12 -1 20 -7 13 -11 16 -8 21 16
54 244 193 657 330 978 104 243 321 661 440 845 86 134 180 276 185 280 3 3
19 25 35 50 16 25 32 47 35 50 3 3 32 41 64 85 65 87 171 221 195 246 9 9 36
40 61 70 51 60 186 205 271 288 187 185 313 290 624 519 88 65 306 193 450
263 61 30 112 55 114 56 5 3 -48 172 -64 203 -26 49 -52 69 -158 119 -174 81
-292 184 -458 401 -187 245 -345 536 -410 760 -54 183 -63 422 -24 598 3 12 7
30 9 41 21 94 74 228 147 375 118 236 220 345 365 392 71 23 231 25 338 6 l89
-17 296 296 c163 162 326 326 362 365 199 209 433 380 704 514 257 127 466
189 695 206 47 3 87 8 89 10 2 2 7 2 10 0 3 -2 44 -7 91 -11z m1027 -571 c432
-196 664 -345 890 -571 290 -290 461 -642 461 -953 1 -252 -104 -373 -256
-296 -52 27 -131 99 -177 161 -17 22 -32 42 -35 45 -12 11 -99 160 -135 230
-114 225 -171 318 -248 404 -43 49 -43 50 -101 47 -58 -2 -137 -29 -168 -58
-17 -15 -18 -11 -19 68 0 46 -2 91 -4 99 -1 8 -6 47 -9 85 -25 251 -131 567
-248 738 -11 15 -17 27 -14 27 3 0 31 -12 63 -26z m-1632 -2268 c151 -10 273
-51 340 -114 17 -15 77 -66 135 -112 242 -194 354 -318 419 -462 51 -114 52
-108 -41 -185 -46 -38 -101 -82 -123 -98 -22 -17 -42 -33 -45 -37 -3 -3 -55
-40 -116 -80 -118 -79 -273 -163 -317 -172 -15 -3 -37 -8 -49 -11 -39 -8 -310
-82 -383 -105 -137 -41 -444 -59 -595 -36 -131 21 -285 84 -341 139 -104 105
-127 262 -76 527 10 52 66 207 103 285 70 150 180 297 247 331 102 53 408 116
637 130 52 4 97 8 98 9 2 2 9 2 15 0 7 -2 48 -6 92 -9z m1931 -69 c10 -9 6
-152 -5 -232 -6 -44 -12 -110 -13 -145 -1 -70 19 -181 36 -192 10 -7 194 -3
231 5 20 4 60 11 125 22 88 15 280 57 325 72 90 29 139 60 203 128 35 37 66
65 68 62 9 -8 18 -140 18 -247 -1 -117 -9 -208 -29 -300 -3 -14 -7 -35 -10
-48 -12 -65 -86 -286 -98 -293 -5 -4 -22 -3 -36 1 -31 10 -300 56 -386 66 -33
3 -69 8 -80 10 -11 3 -51 7 -90 10 -38 2 -81 7 -95 9 -65 12 -292 20 -567 20
-264 0 -302 2 -298 15 2 8 9 33 14 55 6 22 23 60 37 85 15 25 34 59 44 75 9
17 77 134 150 260 73 127 144 250 158 275 14 25 35 61 48 82 13 20 39 67 58
105 53 104 68 116 133 110 30 -3 57 -7 59 -10z m2857 -1316 c184 -96 301 -171
582 -374 88 -64 165 -120 170 -124 6 -5 28 -22 50 -38 145 -107 365 -314 545
-514 125 -139 183 -203 200 -220 20 -21 164 -200 222 -276 83 -110 263 -388
350 -540 83 -147 198 -365 218 -415 5 -14 14 -32 19 -40 35 -57 189 -436 239
-590 12 -36 35 -103 51 -150 16 -47 29 -88 29 -93 1 -4 12 -44 25 -90 14 -45
28 -95 32 -112 5 -16 9 -34 11 -40 5 -16 24 -88 29 -109 2 -10 14 -59 25 -110
12 -50 25 -107 30 -126 6 -19 17 -71 25 -115 8 -44 17 -91 19 -104 3 -12 8
-43 11 -68 2 -24 7 -48 9 -51 2 -4 7 -31 10 -60 3 -29 8 -63 11 -75 4 -23 11
-73 20 -162 3 -27 8 -70 11 -94 5 -44 6 -59 20 -226 16 -187 9 -840 -10 -995
-2 -14 -7 -56 -10 -95 -9 -100 -33 -269 -61 -435 -30 -182 -100 -492 -156
-690 -5 -19 -11 -42 -14 -50 -34 -129 -198 -607 -235 -685 -5 -11 -36 -86 -69
-168 -158 -385 -450 -866 -802 -1322 -59 -77 -118 -151 -131 -165 -13 -14 -44
-50 -69 -80 -87 -104 -214 -226 -389 -374 -96 -82 -189 -161 -206 -176 -31
-28 -198 -154 -264 -199 -166 -114 -491 -321 -504 -321 -2 0 -37 -19 -78 -43
-218 -129 -633 -318 -912 -416 -149 -53 -453 -139 -581 -165 -11 -3 -52 -11
-90 -20 -39 -8 -84 -17 -100 -20 -16 -3 -51 -10 -79 -16 -28 -5 -68 -12 -89
-15 -21 -2 -43 -7 -50 -11 -9 -5 -9 -4 -1 5 6 6 25 13 42 15 17 3 40 7 51 11
11 3 29 8 40 10 68 13 282 75 446 129 607 201 1149 484 1671 871 61 46 120 90
130 98 10 9 51 42 89 73 39 31 72 59 75 63 3 3 25 22 50 42 25 20 61 52 80 70
20 19 85 76 145 128 420 360 786 819 1084 1359 60 108 211 406 211 416 0 2 18
42 39 88 42 90 137 324 196 481 34 92 163 472 164 482 0 3 11 42 25 88 13 45
31 107 40 137 8 30 22 82 31 115 10 33 19 67 20 75 2 8 9 31 14 50 11 35 65
293 75 360 3 19 7 44 10 55 2 11 7 49 11 85 4 36 9 73 10 82 3 15 12 98 21
183 17 182 23 668 10 860 -3 44 -8 120 -11 169 -3 49 -7 92 -9 95 -2 3 -7 41
-10 83 -4 42 -9 87 -11 100 -3 13 -7 43 -10 68 -6 46 -9 66 -25 160 -5 30 -12
73 -16 95 -3 22 -14 81 -25 130 -11 50 -26 122 -34 162 -9 39 -34 138 -56 220
-152 555 -349 1022 -639 1513 -25 41 -48 80 -53 85 -4 6 -40 60 -79 120 -315
483 -764 957 -1248 1317 -110 82 -341 238 -425 287 -129 76 -231 134 -292 165
l-69 36 25 100 c14 55 27 100 29 100 2 0 54 -26 115 -59z m-6186 -321 c17 -36
32 -71 32 -78 1 -12 -113 -98 -301 -227 -343 -235 -519 -376 -724 -580 -83
-82 -191 -188 -241 -235 -50 -47 -139 -146 -198 -220 -60 -74 -122 -151 -139
-171 -53 -61 -69 -80 -161 -201 -258 -334 -444 -633 -625 -1004 -56 -115 -106
-218 -110 -229 -5 -11 -15 -36 -24 -55 -68 -157 -139 -354 -205 -565 -17 -55
-35 -113 -40 -130 -11 -34 -62 -240 -65 -261 -1 -7 -5 -16 -9 -20 -3 -4 -5 2
-3 12 2 11 7 37 11 59 4 22 9 51 11 65 3 14 7 32 9 40 2 8 7 31 10 50 10 61
93 391 120 480 14 47 27 92 29 100 12 45 93 279 136 390 167 431 375 832 618
1190 73 107 294 405 311 420 3 3 22 25 42 50 155 191 487 523 739 737 180 153
476 352 610 410 25 11 56 25 70 31 47 21 63 11 97 -58z m412 58 c33 -1 61 -5
61 -8 0 -3 -24 -15 -52 -28 l-52 -22 -22 27 c-20 26 -23 50 -5 38 5 -2 36 -6
70 -7z"/>
<path d="M10280 17254 c-440 -80 -909 -361 -1366 -818 -171 -172 -245 -255
-339 -378 l-65 -87 17 -29 c10 -17 43 -68 74 -114 129 -193 186 -337 216 -549
12 -85 8 -365 -5 -459 -14 -91 -14 -94 -31 -185 -6 -33 -12 -73 -15 -90 -2
-16 -7 -49 -11 -72 -4 -23 -8 -57 -10 -75 -1 -18 -6 -62 -10 -98 l-8 -65 58
85 c107 159 158 217 240 274 83 59 200 106 325 131 8 2 49 10 90 18 437 90
702 77 944 -45 46 -23 168 -102 205 -133 171 -141 371 -348 445 -462 35 -54
82 -115 103 -136 l40 -38 49 54 c105 116 211 268 358 514 104 175 143 273 150
376 4 71 -48 186 -118 259 -14 15 -26 32 -26 38 0 5 -4 10 -8 10 -15 0 -70
116 -80 168 -14 77 -9 107 49 292 82 263 93 320 93 490 1 171 -2 197 -40 309
-62 187 -195 373 -395 557 -128 118 -345 226 -519 259 -71 14 -334 13 -410 -1z
m404 -79 c62 -10 181 -52 254 -89 185 -94 397 -301 515 -504 21 -35 37 -65 37
-68 0 -2 9 -23 19 -47 55 -121 75 -285 56 -447 -8 -68 -44 -214 -85 -340 -29
-91 -47 -152 -57 -195 -5 -24 -5 -134 0 -155 23 -97 48 -141 145 -264 33 -41
66 -91 72 -111 29 -86 8 -186 -67 -318 -18 -33 -33 -63 -33 -68 0 -5 -4 -9 -9
-9 -5 0 -14 -12 -20 -27 -26 -66 -202 -325 -322 -476 -16 -20 -19 -18 -84 84
-54 83 -104 139 -244 279 -286 284 -467 394 -731 444 -129 24 -361 17 -575
-19 -141 -23 -318 -64 -390 -90 -73 -27 -186 -86 -215 -114 -9 -9 -38 -36 -64
-61 -26 -25 -45 -38 -42 -30 8 24 27 133 51 305 12 85 13 342 1 426 -4 31 -28
152 -41 209 -22 95 -90 234 -188 382 -31 48 -57 92 -57 97 0 5 32 49 71 97
195 238 407 445 654 639 290 227 647 410 892 457 5 1 24 5 43 10 19 5 80 12
135 15 55 3 101 6 102 7 3 3 126 -11 177 -19z"/>
<path d="M8115 15973 c-11 -2 -47 -13 -80 -25 -157 -55 -279 -178 -370 -373
-20 -44 -41 -87 -45 -96 -14 -28 -68 -260 -78 -334 -19 -145 -12 -295 21 -433
16 -63 76 -210 131 -317 118 -230 276 -447 444 -609 59 -57 231 -181 239 -172
2 2 -5 37 -16 77 -12 41 -30 118 -41 173 -25 123 -28 136 -34 161 -2 11 -13
58 -24 105 -11 47 -39 144 -62 215 -41 129 -124 417 -134 465 -3 14 -7 36 -11
50 -18 83 -28 164 -29 239 -1 114 8 165 44 249 6 12 14 32 19 45 5 12 20 47
34 77 13 30 44 105 67 165 24 61 46 119 51 130 6 17 19 54 24 75 1 3 4 12 7
20 25 65 34 109 24 113 -14 6 -153 5 -181 0z m85 -77 c0 -18 -86 -243 -145
-382 -41 -95 -81 -201 -90 -235 -47 -179 -11 -413 136 -879 68 -217 107 -367
145 -569 3 -14 7 -28 10 -33 3 -4 1 -8 -4 -8 -27 0 -342 364 -342 396 0 4 -9
17 -19 28 -28 30 -141 237 -184 336 -34 80 -68 178 -83 245 -11 45 -14 294 -4
345 4 25 11 61 14 81 3 20 8 42 10 50 3 8 7 25 10 39 2 14 16 61 30 104 85
253 219 411 395 467 51 16 121 25 121 15z"/>
<path d="M1428 12905 c-2 -2 -37 -5 -78 -9 -255 -20 -443 -87 -593 -212 -37
-31 -67 -60 -67 -65 0 -6 4 -8 8 -5 5 3 39 7 78 10 38 3 103 9 144 13 91 9
402 10 450 0 63 -12 163 -48 245 -89 202 -102 363 -247 616 -558 158 -195 198
-239 327 -364 121 -118 182 -159 337 -227 45 -19 175 -48 250 -55 135 -12 208
-10 377 11 64 8 246 59 321 91 45 19 111 52 146 74 54 32 61 40 45 46 -242 85
-432 183 -649 332 -80 56 -506 371 -515 382 -11 13 -299 219 -380 271 -264
172 -528 291 -719 324 -19 3 -37 7 -40 9 -12 8 -297 27 -303 21z m224 -90 c87
-9 240 -48 334 -85 259 -103 465 -233 954 -601 446 -337 627 -454 843 -549 42
-18 77 -36 77 -40 0 -16 -253 -94 -345 -106 -338 -45 -568 -5 -775 136 -75 52
-282 266 -420 436 -308 378 -450 505 -695 624 -167 81 -235 95 -467 95 l-197
0 47 18 c26 11 54 21 62 23 8 2 41 10 72 19 64 17 91 22 203 31 44 3 81 8 83
9 4 4 154 -3 224 -10z"/>
<path d="M988 12555 c-1 -1 -21 -5 -43 -8 -62 -9 -192 -55 -270 -95 -61 -32
-245 -148 -245 -155 0 -2 52 -3 115 -4 107 -1 204 -8 250 -18 11 -2 38 -7 59
-10 255 -36 510 -161 692 -339 178 -175 280 -342 444 -728 45 -106 91 -211
101 -232 11 -22 19 -46 19 -53 0 -7 4 -13 9 -13 5 0 12 -12 16 -27 3 -15 25
-59 48 -97 23 -39 45 -78 48 -86 16 -39 142 -159 196 -187 159 -85 303 -74
623 44 198 73 305 106 385 119 22 3 42 7 45 9 24 15 396 23 465 11 17 -3 62
-10 100 -15 100 -15 262 -65 371 -116 327 -153 598 -432 850 -875 69 -121 164
-313 164 -332 0 -7 3 -8 9 -2 25 27 35 312 16 469 -11 99 -73 362 -114 490
-81 251 -192 494 -302 665 -142 219 -353 375 -562 415 -70 13 -292 14 -347 1
-14 -4 -41 -9 -60 -12 -19 -3 -43 -7 -52 -10 -10 -3 -30 -7 -45 -10 -16 -3
-46 -10 -68 -16 -48 -12 -49 -13 -100 -22 -22 -5 -67 -15 -100 -23 -33 -8 -71
-17 -85 -19 -14 -2 -36 -7 -50 -10 -26 -6 -40 -9 -105 -19 -22 -4 -51 -9 -65
-11 -14 -3 -83 -7 -155 -9 -262 -9 -488 70 -710 248 -62 50 -200 189 -240 242
-282 372 -523 604 -753 726 -98 52 -162 75 -287 106 -23 6 -261 13 -267 8z
m187 -79 c103 -10 187 -36 300 -91 228 -112 442 -310 705 -650 190 -246 395
-417 606 -505 145 -60 255 -83 404 -84 187 -1 311 16 600 85 285 68 414 90
530 90 249 1 460 -122 637 -369 55 -76 177 -314 222 -432 18 -47 37 -94 41
-105 50 -117 129 -412 146 -540 3 -27 8 -58 10 -68 1 -9 6 -54 9 -100 l7 -82
-73 125 c-40 69 -76 127 -79 130 -3 3 -21 29 -40 59 -43 68 -162 224 -209 274
-163 174 -276 268 -436 360 -150 86 -383 165 -540 183 -33 3 -69 8 -80 10 -25
6 -328 5 -370 0 -31 -4 -99 -14 -150 -22 -61 -10 -185 -48 -370 -114 -234 -84
-309 -103 -405 -102 -84 0 -139 17 -204 61 -108 75 -181 192 -315 506 -5 11
-16 36 -24 55 -8 19 -34 80 -57 135 -66 157 -168 350 -244 465 -84 125 -256
303 -363 373 -156 103 -361 187 -517 211 -21 4 -41 8 -45 10 -4 3 -41 8 -82
11 -107 9 -110 12 -41 45 93 44 176 67 272 76 36 3 67 7 68 9 2 2 9 2 15 0 7
-2 39 -6 72 -9z"/>
</g>
</svg>
